# Blender v2.80 (sub 75) OBJ File: 'mask.blend'
# www.blender.org
mtllib maskblue.mtl
o Cube_Cube.001
v -0.459562 -3.889160 -1.711006
v -0.459562 3.549187 -3.345624
v 0.459562 -3.889160 -1.711006
v 0.459562 3.549187 -3.345624
v -0.062760 4.579652 -2.459903
v 0.826914 -3.755301 -1.215394
v -0.062760 -3.755301 -1.215394
v 0.826914 4.579652 -2.459903
v -0.459562 -0.769732 -3.771291
v 0.459562 -0.769732 -3.771291
v 0.826914 0.317879 -1.969577
v -0.062760 0.317879 -1.969577
v -0.459562 2.381262 -3.774931
v 0.459562 2.381262 -3.774931
v 0.826914 2.808354 -1.969577
v -0.062760 2.808354 -1.969577
v -0.459562 -1.755542 -2.674994
v 0.459562 -1.755542 -2.674994
v 0.826914 -2.172596 -1.969577
v -0.062760 -2.172596 -1.969577
v 1.090674 0.342521 -0.506467
v 0.158677 0.342521 -0.506467
v 0.850186 0.539219 -1.840487
v -0.043222 0.539219 -1.840487
v 0.826914 0.687266 -1.969577
v -0.062760 0.687266 -1.969577
v 0.701014 1.431653 -2.618647
v -0.198753 1.431653 -2.618647
v 0.894060 1.426488 -1.597114
v 0.004435 1.431737 -1.525595
v -0.062760 1.370710 -1.969577
v 0.826914 1.375237 -1.969577
v 0.797967 1.354691 -2.118814
v -0.090768 1.352295 -2.103256
v 0.964968 0.388348 -1.203773
v 0.974879 0.366093 -1.148796
v 0.039891 0.458247 -1.291329
v 0.063691 0.394762 -1.134073
v 0.072443 0.371418 -1.076248
v 0.925048 0.477988 -1.425216
v 1.018916 1.164203 -0.904519
v 0.109498 1.169568 -0.831409
v 1.084742 0.449487 -0.539372
v 1.086540 0.429970 -0.529401
v 0.164787 0.456230 -0.466097
v 0.166402 0.435399 -0.455429
v 1.026059 0.395371 -0.864898
v 1.078313 0.425263 -0.575039
v 0.148552 0.423244 -0.573365
v 0.105742 0.394093 -0.856228
v -0.413623 0.129294 -3.628754
v 0.505501 0.129294 -3.628754
v 0.826914 -1.389272 -1.969577
v 0.784608 -1.007794 -2.177070
v -0.062760 -1.389272 -1.969577
v -0.108457 -1.007794 -2.177070
v 0.911757 -2.550085 -1.338187
v 0.008470 -2.550085 -1.338187
v 0.901847 -2.153472 -1.553912
v 0.000150 -2.153472 -1.553912
v 0.826914 -1.021860 -1.969577
v -0.062760 -1.021860 -1.969577
v 1.178266 -1.153977 -0.020585
v 0.232213 -1.153977 -0.020585
v -0.459562 -3.889160 1.711006
v -0.459562 3.549187 3.345624
v 0.459562 -3.889160 1.711006
v 0.459562 3.549187 3.345624
v 0.235329 -3.591042 0.000000
v 0.235329 5.099080 0.000000
v 1.181977 -3.591042 0.000000
v 1.181977 5.099080 0.000000
v -0.062760 4.579652 2.459903
v 0.826914 -3.755301 1.215394
v -0.062760 -3.755301 1.215394
v 0.826914 4.579652 2.459903
v -0.459562 -0.769732 3.771291
v 0.459562 -0.769732 3.771291
v 1.181977 0.499120 0.000000
v 0.235329 0.499120 0.000000
v 0.826914 0.317879 1.969577
v -0.062760 0.317879 1.969577
v -0.459562 2.381262 3.774931
v 0.459562 2.381262 3.774931
v 1.181977 3.080216 0.000000
v 0.235329 3.080216 0.000000
v 0.826914 2.808354 1.969577
v -0.062760 2.808354 1.969577
v -0.459562 -1.755542 2.674994
v 0.459562 -1.755542 2.674994
v 0.826914 -2.172596 1.969577
v -0.062760 -2.172596 1.969577
v 1.090674 0.342521 0.506467
v 0.158677 0.342521 0.506467
v 0.850186 0.539219 1.840487
v -0.043222 0.539219 1.840487
v 0.826914 0.687266 1.969577
v -0.062760 0.687266 1.969577
v 0.701014 1.431653 2.618647
v -0.198753 1.431653 2.618647
v 0.894060 1.426488 1.597114
v 0.004435 1.431737 1.525595
v -0.062760 1.370710 1.969577
v 0.826914 1.375237 1.969577
v 0.797967 1.354691 2.118814
v -0.090768 1.352295 2.103256
v 0.964968 0.388348 1.203773
v 0.974879 0.366093 1.148796
v 0.039891 0.458247 1.291329
v 0.063691 0.394762 1.134073
v 0.072443 0.371418 1.076248
v 0.925048 0.477988 1.425216
v 1.018916 1.164203 0.904519
v 0.109498 1.169568 0.831409
v 1.084742 0.449487 0.539372
v 1.086540 0.429970 0.529401
v 0.164787 0.456230 0.466097
v 0.166402 0.435399 0.455429
v 1.026059 0.395371 0.864898
v 1.078313 0.425263 0.575039
v 0.148552 0.423244 0.573365
v 0.105742 0.394093 0.856228
v -0.413623 0.129294 3.628754
v 0.505501 0.129294 3.628754
v 0.826914 -1.389272 1.969577
v 0.784608 -1.007794 2.177070
v -0.062760 -1.389272 1.969577
v -0.108457 -1.007794 2.177070
v 1.181977 -2.350527 0.000000
v 0.235329 -2.350527 0.000000
v 0.911757 -2.550085 1.338187
v 0.008470 -2.550085 1.338187
v 0.901847 -2.153472 1.553912
v 0.000150 -2.153472 1.553912
v 0.826914 -1.021860 1.969577
v -0.062760 -1.021860 1.969577
v 1.178266 -1.153977 0.020585
v 0.232213 -1.153977 0.020585
v 1.181977 -1.151756 0.000000
v 0.235329 -1.151756 0.000000
vt 0.562500 0.187500
vt 0.625000 0.187500
vt 0.625000 0.250000
vt 0.562500 0.250000
vt 0.625000 0.500000
vt 0.562500 0.500000
vt 0.625000 0.562500
vt 0.875000 0.562500
vt 0.875000 0.625000
vt 0.625000 0.625000
vt 0.125000 0.562500
vt 0.375000 0.562500
vt 0.375000 0.625000
vt 0.125000 0.625000
vt 0.562500 0.562500
vt 0.562500 0.625000
vt 0.125000 0.500000
vt 0.375000 0.500000
vt 0.875000 0.500000
vt 0.562500 0.125000
vt 0.625000 0.125000
vt 0.437500 0.500000
vt 0.500000 0.500000
vt 0.500000 0.562500
vt 0.466378 0.562500
vt 0.469216 0.554878
vt 0.457158 0.562500
vt 0.437500 0.562500
vt 0.437500 0.575690
vt 0.437500 0.250000
vt 0.500000 0.250000
vt 0.437500 0.187500
vt 0.457158 0.187500
vt 0.469209 0.195071
vt 0.466378 0.187500
vt 0.500000 0.187500
vt 0.500000 0.125000
vt 0.526421 0.187500
vt 0.526722 0.173411
vt 0.518418 0.151383
vt 0.500000 0.139791
vt 0.531250 0.500000
vt 0.526535 0.562500
vt 0.527311 0.557569
vt 0.533567 0.541056
vt 0.509270 0.562500
vt 0.505227 0.566596
vt 0.502745 0.579774
vt 0.500000 0.586801
vt 0.531250 0.250000
vt 0.509270 0.187500
vt 0.533578 0.208942
vt 0.527118 0.191916
vt 0.375000 0.187500
vt 0.375000 0.250000
vt 0.421169 0.577719
vt 0.426126 0.625000
vt 0.375000 0.125000
vt 0.426126 0.125000
vt 0.421194 0.172202
vt 0.437500 0.174310
vt 0.375000 0.367339
vt 0.375000 0.438185
vt 0.416473 0.436339
vt 0.625000 0.426356
vt 0.625000 0.355005
vt 0.416473 0.365789
vt 0.375000 0.792745
vt 0.375000 0.866651
vt 0.398047 0.867454
vt 0.398623 0.793725
vt 0.258349 0.750000
vt 0.332255 0.750000
vt 0.327131 0.682829
vt 0.254151 0.684453
vt 0.709230 0.625000
vt 0.830893 0.625000
vt 0.835124 0.539064
vt 0.837455 0.513070
vt 0.716531 0.523758
vt 0.714244 0.552742
vt 0.697387 0.750000
vt 0.821756 0.750000
vt 0.169242 0.625000
vt 0.292656 0.625000
vt 0.291836 0.615086
vt 0.288532 0.575156
vt 0.166879 0.586305
vt 0.168606 0.614597
vt 0.375000 0.820432
vt 0.375000 0.946267
vt 0.382093 0.946281
vt 0.625000 0.946756
vt 0.625000 0.822387
vt 0.381646 0.820484
vt 0.500000 0.607884
vt 0.518474 0.596297
vt 0.526789 0.574319
vt 0.500000 0.625000
vt 0.690956 0.590125
vt 0.761432 0.592930
vt 0.769995 0.500000
vt 0.698644 0.500000
vt 0.500000 0.160987
vt 0.501945 0.165977
vt 0.505226 0.183404
vt 0.248929 0.602914
vt 0.319121 0.577823
vt 0.313185 0.500000
vt 0.242339 0.500000
vt 0.178733 0.750000
vt 0.304568 0.750000
vt 0.303690 0.740790
vt 0.176930 0.726254
vt 0.172605 0.669300
vt 0.298116 0.682294
vt 0.677187 0.626899
vt 0.736263 0.626899
vt 0.736472 0.625000
vt 0.677433 0.625000
vt 0.754009 0.512027
vt 0.756768 0.500000
vt 0.701036 0.500000
vt 0.698488 0.512027
vt 0.460005 0.125653
vt 0.460025 0.125000
vt 0.499466 0.139452
vt 0.499434 0.143194
vt 0.497305 0.141072
vt 0.499357 0.152170
vt 0.499293 0.159152
vt 0.460025 0.625000
vt 0.460005 0.624347
vt 0.499326 0.588546
vt 0.499408 0.597555
vt 0.497306 0.608928
vt 0.499487 0.606752
vt 0.499499 0.608201
vt 0.375000 0.375529
vt 0.375000 0.431899
vt 0.439290 0.431281
vt 0.563164 0.426605
vt 0.625000 0.423964
vt 0.625000 0.368232
vt 0.563164 0.371083
vt 0.439290 0.375009
vt 0.264686 0.625000
vt 0.323763 0.625000
vt 0.306899 0.500000
vt 0.250529 0.500000
vt 0.562500 0.187500
vt 0.562500 0.250000
vt 0.625000 0.250000
vt 0.625000 0.187500
vt 0.562500 0.500000
vt 0.625000 0.500000
vt 0.625000 0.562500
vt 0.875000 0.562500
vt 0.125000 0.562500
vt 0.375000 0.562500
vt 0.562500 0.562500
vt 0.125000 0.500000
vt 0.375000 0.500000
vt 0.875000 0.500000
vt 0.437500 0.500000
vt 0.437500 0.562500
vt 0.457158 0.562500
vt 0.469216 0.554878
vt 0.466378 0.562500
vt 0.500000 0.562500
vt 0.500000 0.500000
vt 0.437500 0.575690
vt 0.437500 0.250000
vt 0.500000 0.250000
vt 0.437500 0.187500
vt 0.500000 0.187500
vt 0.466378 0.187500
vt 0.469209 0.195071
vt 0.457158 0.187500
vt 0.500000 0.139791
vt 0.518418 0.151383
vt 0.526722 0.173411
vt 0.526421 0.187500
vt 0.509270 0.562500
vt 0.533567 0.541056
vt 0.527311 0.557569
vt 0.526535 0.562500
vt 0.531250 0.500000
vt 0.500000 0.586801
vt 0.502745 0.579774
vt 0.505227 0.566596
vt 0.531250 0.250000
vt 0.527118 0.191916
vt 0.533578 0.208942
vt 0.509270 0.187500
vt 0.375000 0.187500
vt 0.375000 0.250000
vt 0.421169 0.577719
vt 0.437500 0.174310
vt 0.421194 0.172202
vt 0.375000 0.367339
vt 0.416473 0.365789
vt 0.625000 0.355005
vt 0.625000 0.426356
vt 0.416473 0.436339
vt 0.375000 0.438185
vt 0.375000 0.792745
vt 0.398623 0.793725
vt 0.398047 0.867454
vt 0.375000 0.866651
vt 0.258349 0.750000
vt 0.254151 0.684453
vt 0.327131 0.682829
vt 0.332255 0.750000
vt 0.709230 0.625000
vt 0.714244 0.552742
vt 0.716531 0.523758
vt 0.837455 0.513070
vt 0.835124 0.539064
vt 0.830893 0.625000
vt 0.697387 0.750000
vt 0.821756 0.750000
vt 0.169242 0.625000
vt 0.168606 0.614597
vt 0.166879 0.586305
vt 0.288532 0.575156
vt 0.291836 0.615086
vt 0.292656 0.625000
vt 0.375000 0.820432
vt 0.381646 0.820484
vt 0.625000 0.822387
vt 0.625000 0.946756
vt 0.382093 0.946281
vt 0.375000 0.946267
vt 0.500000 0.607884
vt 0.526789 0.574319
vt 0.518474 0.596297
vt 0.690956 0.590125
vt 0.698644 0.500000
vt 0.769995 0.500000
vt 0.761432 0.592930
vt 0.500000 0.160987
vt 0.505226 0.183404
vt 0.501945 0.165977
vt 0.248929 0.602914
vt 0.242339 0.500000
vt 0.313185 0.500000
vt 0.319121 0.577823
vt 0.178733 0.750000
vt 0.176930 0.726254
vt 0.303690 0.740790
vt 0.304568 0.750000
vt 0.298116 0.682294
vt 0.172605 0.669300
vt 0.677433 0.625000
vt 0.736472 0.625000
vt 0.698488 0.512027
vt 0.701036 0.500000
vt 0.756768 0.500000
vt 0.754009 0.512027
vt 0.499293 0.159152
vt 0.499357 0.152170
vt 0.497305 0.141072
vt 0.499434 0.143194
vt 0.499466 0.139452
vt 0.460005 0.125653
vt 0.499499 0.608201
vt 0.499487 0.606752
vt 0.497306 0.608928
vt 0.499408 0.597555
vt 0.499326 0.588546
vt 0.460005 0.624347
vt 0.375000 0.375529
vt 0.439290 0.375009
vt 0.563164 0.371083
vt 0.625000 0.368232
vt 0.625000 0.423964
vt 0.563164 0.426605
vt 0.439290 0.431281
vt 0.375000 0.431899
vt 0.250529 0.500000
vt 0.306899 0.500000
vn -0.9600 0.0058 0.2800
vn 0.0000 0.3450 -0.9386
vn 0.0000 0.9784 -0.2066
vn 0.0000 -0.9910 0.1339
vn 0.9877 -0.0200 -0.1548
vn 0.9654 -0.0054 -0.2606
vn 0.0000 -0.9654 0.2607
vn 0.0000 0.6518 -0.7584
vn -0.9913 0.0169 0.1304
vn 0.9617 -0.0833 -0.2610
vn 0.9841 0.0000 -0.1774
vn 0.0000 -0.7436 -0.6686
vn -0.9558 0.0894 0.2801
vn -0.9887 -0.0000 0.1496
vn 0.9809 -0.0001 -0.1946
vn 0.0000 -0.0648 -0.9979
vn -0.9775 0.0001 0.2107
vn -0.7744 0.2655 0.5743
vn 0.0000 -0.4117 -0.9113
vn 0.9738 -0.0538 -0.2208
vn 0.7975 -0.2532 -0.5476
vn -0.9813 0.0456 0.1868
vn 0.0000 0.6572 0.7537
vn 0.0000 -0.6381 -0.7700
vn 0.0000 0.9893 0.1459
vn 0.0050 -0.9908 0.1354
vn -0.0336 -0.9366 -0.3487
vn 0.0352 0.9286 0.3695
vn -0.0739 -0.4591 -0.8853
vn -0.0000 -0.9884 -0.1522
vn -0.0023 0.9948 -0.1022
vn 0.0000 0.1566 -0.9877
vn 0.0000 -0.9942 0.1073
vn 0.0000 -0.9977 -0.0676
vn 0.0000 0.4778 0.8785
vn 0.0000 0.9891 -0.1475
vn -0.9600 0.0058 -0.2800
vn 0.0000 0.3450 0.9386
vn 0.0000 0.9784 0.2066
vn 0.0000 -0.9910 -0.1339
vn 0.9877 -0.0200 0.1548
vn 0.9654 -0.0054 0.2606
vn 0.0000 -0.9654 -0.2607
vn 0.0000 0.6518 0.7584
vn -0.9913 0.0169 -0.1304
vn 0.9617 -0.0833 0.2610
vn 0.9841 0.0000 0.1774
vn 0.0000 -0.7436 0.6686
vn -0.9558 0.0894 -0.2801
vn -0.9887 -0.0000 -0.1496
vn 0.9809 -0.0001 0.1946
vn 0.0000 -0.0648 0.9979
vn -0.9775 0.0001 -0.2107
vn -0.7744 0.2655 -0.5743
vn 0.0000 -0.4117 0.9113
vn 0.9738 -0.0538 0.2208
vn 0.7975 -0.2532 0.5476
vn -0.9813 0.0456 -0.1868
vn 0.0000 0.6572 -0.7537
vn 0.0000 -0.6381 0.7700
vn 0.0000 0.9893 -0.1459
vn 0.0050 -0.9908 -0.1354
vn -0.0336 -0.9366 0.3487
vn 0.0352 0.9286 -0.3695
vn -0.0739 -0.4591 0.8853
vn -0.0000 -0.9884 0.1522
vn -0.0023 0.9948 0.1022
vn 0.0000 0.1566 0.9877
vn 0.0000 -0.9942 -0.1073
vn 0.0000 -0.9977 0.0676
vn -0.0000 0.4778 -0.8785
vn 0.0000 0.9891 0.1475
usemtl None
s off
f 16/1/1 5/2/1 2/3/1 13/4/1
f 13/4/2 2/3/2 4/5/2 14/6/2
f 8/7/3 5/8/3 70/9/3 72/10/3
f 7/11/4 6/12/4 71/13/4 69/14/4
f 15/15/5 8/7/5 72/10/5 85/16/5
f 14/6/6 4/5/6 8/7/6 15/15/6
f 1/17/7 3/18/7 6/12/7 7/11/7
f 4/5/8 2/19/8 5/8/8 8/7/8
f 86/20/9 70/21/9 5/2/9 16/1/9
f 18/22/10 10/23/10 11/24/10 61/25/10 54/26/10 53/27/10 19/28/10
f 19/28/11 53/27/11 59/29/11
f 17/30/12 9/31/12 10/23/12 18/22/12
f 20/32/13 55/33/13 56/34/13 62/35/13 12/36/13 9/31/13 17/30/13
f 80/37/14 86/20/14 16/1/14 31/38/14 30/39/14 42/40/14 45/41/14
f 10/23/15 52/42/15 14/6/15 15/15/15 32/43/15 33/44/15 27/45/15 25/46/15 11/24/15
f 11/24/11 25/46/11 23/47/11 40/48/11 35/49/11
f 51/50/16 13/4/16 14/6/16 52/42/16
f 12/36/17 26/51/17 28/52/17 34/53/17 31/38/17 16/1/17 13/4/17 51/50/17 9/31/17
f 7/54/18 20/32/18 17/30/18 1/55/18
f 1/55/19 17/30/19 18/22/19 3/18/19
f 6/12/20 19/28/20 59/29/20 57/56/20 129/57/20 71/13/20
f 3/18/21 18/22/21 19/28/21 6/12/21
f 69/58/22 130/59/22 58/60/22 60/61/22 20/32/22 7/54/22
f 24/62/23 23/63/23 25/64/23 27/65/23 28/66/23 26/67/23
f 21/68/24 22/69/24 49/70/24 48/71/24
f 22/72/25 21/73/25 47/74/25 50/75/25
f 29/76/26 30/77/26 31/78/26 34/79/26 33/80/26 32/81/26
f 41/82/27 42/83/27 30/77/27 29/76/27
f 39/84/28 36/85/28 35/86/28 40/87/28 37/88/28 38/89/28
f 44/90/29 46/91/29 45/92/29 42/93/29 41/94/29 43/95/29
f 43/96/11 41/97/11 29/98/11 32/43/11 15/15/11 85/16/11 79/99/11
f 33/100/30 34/101/30 28/102/30 27/103/30
f 38/104/14 37/105/14 24/106/14 26/51/14 12/36/14
f 37/107/25 40/108/25 23/109/25 24/110/25
f 46/111/31 44/112/31 48/113/31 49/114/31
f 36/85/31 39/84/31 50/115/31 47/116/31
f 9/31/32 51/50/32 52/42/32 10/23/32
f 139/117/33 140/118/33 64/119/33 63/120/33
f 63/120/34 64/119/34 62/121/34 56/122/34 54/123/34 61/124/34
f 60/61/14 55/33/14 20/32/14
f 62/35/14 64/125/14 140/126/14 80/37/14 45/41/14 46/127/14 49/128/14 22/129/14 50/130/14 39/131/14 38/104/14 12/36/14
f 139/132/11 63/133/11 61/25/11 11/24/11 35/49/11 36/134/11 47/135/11 21/136/11 48/137/11 44/138/11 43/96/11 79/99/11
f 58/139/35 57/140/35 59/141/35 53/142/35 54/143/35 56/144/35 55/145/35 60/146/35
f 130/147/36 129/148/36 57/149/36 58/150/36
f 88/151/37 83/152/37 66/153/37 73/154/37
f 83/152/38 84/155/38 68/156/38 66/153/38
f 76/157/39 72/10/39 70/9/39 73/158/39
f 75/159/40 69/14/40 71/13/40 74/160/40
f 87/161/41 85/16/41 72/10/41 76/157/41
f 84/155/42 87/161/42 76/157/42 68/156/42
f 65/162/43 75/159/43 74/160/43 67/163/43
f 68/156/44 76/157/44 73/158/44 66/164/44
f 86/20/45 88/151/45 73/154/45 70/21/45
f 90/165/46 91/166/46 125/167/46 126/168/46 135/169/46 81/170/46 78/171/46
f 91/166/47 133/172/47 125/167/47
f 89/173/48 90/165/48 78/171/48 77/174/48
f 92/175/49 89/173/49 77/174/49 82/176/49 136/177/49 128/178/49 127/179/49
f 80/37/50 117/180/50 114/181/50 102/182/50 103/183/50 88/151/50 86/20/50
f 78/171/51 81/170/51 97/184/51 99/185/51 105/186/51 104/187/51 87/161/51 84/155/51 124/188/51
f 81/170/47 107/189/47 112/190/47 95/191/47 97/184/47
f 123/192/52 124/188/52 84/155/52 83/152/52
f 82/176/53 77/174/53 123/192/53 83/152/53 88/151/53 103/183/53 106/193/53 100/194/53 98/195/53
f 75/196/54 65/197/54 89/173/54 92/175/54
f 65/197/55 67/163/55 90/165/55 89/173/55
f 74/160/56 71/13/56 129/57/56 131/198/56 133/172/56 91/166/56
f 67/163/57 74/160/57 91/166/57 90/165/57
f 69/58/58 75/196/58 92/175/58 134/199/58 132/200/58 130/59/58
f 96/201/59 98/202/59 100/203/59 99/204/59 97/205/59 95/206/59
f 93/207/60 120/208/60 121/209/60 94/210/60
f 94/211/61 122/212/61 119/213/61 93/214/61
f 101/215/62 104/216/62 105/217/62 106/218/62 103/219/62 102/220/62
f 113/221/63 101/215/63 102/220/63 114/222/63
f 111/223/64 110/224/64 109/225/64 112/226/64 107/227/64 108/228/64
f 116/229/65 115/230/65 113/231/65 114/232/65 117/233/65 118/234/65
f 115/235/47 79/99/47 85/16/47 87/161/47 104/187/47 101/236/47 113/237/47
f 105/238/66 99/239/66 100/240/66 106/241/66
f 110/242/50 82/176/50 98/195/50 96/243/50 109/244/50
f 109/245/61 96/246/61 95/247/61 112/248/61
f 118/249/67 121/250/67 120/251/67 116/252/67
f 108/228/67 119/253/67 122/254/67 111/223/67
f 77/174/68 78/171/68 124/188/68 123/192/68
f 139/117/69 137/255/69 138/256/69 140/118/69
f 137/255/70 135/257/70 126/258/70 128/259/70 136/260/70 138/256/70
f 134/199/50 92/175/50 127/179/50
f 136/177/50 82/176/50 110/242/50 111/261/50 122/262/50 94/263/50 121/264/50 118/265/50 117/180/50 80/37/50 140/126/50 138/266/50
f 139/132/47 79/99/47 115/235/47 116/267/47 120/268/47 93/269/47 119/270/47 108/271/47 107/189/47 81/170/47 135/169/47 137/272/47
f 132/273/71 134/274/71 127/275/71 128/276/71 126/277/71 125/278/71 133/279/71 131/280/71
f 130/147/72 132/281/72 131/282/72 129/148/72
o Cube.003_Cube.008
v -0.226504 0.437717 -0.423843
v -0.279835 1.171866 -0.800110
v -0.300408 0.653491 -1.749526
v -0.370822 1.344606 -2.149090
v 1.601555 0.426931 -0.570804
v 1.548224 1.161080 -0.947071
v 1.527651 0.642705 -1.896487
v 1.457237 1.333820 -2.296051
v -0.251062 0.373327 -1.050241
v -0.318089 1.433640 -1.499667
v 1.576997 0.362541 -1.197201
v 1.509970 1.422854 -1.646628
vt 0.375000 0.125000
vt 0.625000 0.125000
vt 0.625000 0.250000
vt 0.375000 0.250000
vt 0.625000 0.500000
vt 0.375000 0.500000
vt 0.375000 0.625000
vt 0.625000 0.625000
vt 0.625000 0.750000
vt 0.375000 0.750000
vt 0.625000 1.000000
vt 0.375000 1.000000
vt 0.125000 0.625000
vt 0.125000 0.750000
vt 0.875000 0.625000
vt 0.875000 0.750000
vt 0.875000 0.500000
vt 0.125000 0.500000
vt 0.375000 0.000000
vt 0.625000 0.000000
vn -0.9966 -0.0447 0.0691
vn -0.0721 -0.5047 -0.8603
vn 0.9980 0.0485 -0.0401
vn 0.0739 0.4591 0.8853
vn 0.0023 -0.9948 0.1022
vn 0.0336 0.9366 0.3487
vn -0.0050 0.9908 -0.1354
vn -0.0352 -0.9286 -0.3695
vn 0.9966 0.0447 -0.0691
vn -0.9980 -0.0485 0.0401
usemtl None
s off
f 149/283/73 150/284/73 144/285/73 143/286/73
f 143/286/74 144/285/74 148/287/74 147/288/74
f 151/289/75 152/290/75 146/291/75 145/292/75
f 145/292/76 146/291/76 142/293/76 141/294/76
f 149/295/77 151/289/77 145/292/77 141/296/77
f 152/290/78 150/297/78 142/298/78 146/291/78
f 148/287/79 144/299/79 150/297/79 152/290/79
f 143/300/80 147/288/80 151/289/80 149/295/80
f 147/288/81 148/287/81 152/290/81 151/289/81
f 141/301/82 142/302/82 150/284/82 149/283/82
